<?xml version="1.0" standalone="no"?>
<!DOCTYPE svg PUBLIC "-//W3C//DTD SVG 20010904//EN"
 "http://www.w3.org/TR/2001/REC-SVG-20010904/DTD/svg10.dtd">
<svg version="1.0" xmlns="http://www.w3.org/2000/svg"
 width="625.000000pt" height="250.000000pt" viewBox="0 0 625.000000 250.000000"
 preserveAspectRatio="xMidYMid meet">

<g transform="translate(0.000000,250.000000) scale(0.100000,-0.100000)"
fill="#000000" stroke="none">
<path d="M37 2463 c-4 -3 -7 -129 -7 -280 l0 -273 60 0 60 0 0 117 c0 64 3
113 7 109 4 -4 25 -55 48 -114 l41 -107 62 -3 62 -3 0 281 0 280 -60 0 -60 0
0 -127 0 -128 -51 128 -51 127 -52 0 c-29 0 -56 -3 -59 -7z"/>
</g>
</svg>
